<?xml version="1.0" standalone="no"?>
<!DOCTYPE svg PUBLIC "-//W3C//DTD SVG 20010904//EN"
 "http://www.w3.org/TR/2001/REC-SVG-20010904/DTD/svg10.dtd">
<svg version="1.0" xmlns="http://www.w3.org/2000/svg"
 width="260.000000pt" height="260.000000pt" viewBox="0 0 260.000000 260.000000"
 preserveAspectRatio="xMidYMid meet">
<metadata>
Created by potrace 1.14, written by Peter Selinger 2001-2017
</metadata>
<g transform="translate(0.000000,260.000000) scale(0.100000,-0.100000)"
fill="#000000" stroke="none">
<path d="M152 1838 c1 -566 5 -775 14 -842 83 -556 567 -979 1125 -983 309 -2
586 107 806 317 175 167 284 368 333 611 19 96 20 138 20 875 l0 774 -1149 0
-1150 0 1 -752z m1756 155 c-132 -230 -244 -422 -248 -427 -5 -5 -148 -11
-317 -14 -169 -2 -310 -6 -312 -8 -2 -2 -10 -48 -18 -101 -8 -54 -16 -107 -17
-118 -2 -11 -6 -45 -10 -75 -4 -30 -9 -62 -11 -70 -2 -8 -7 -39 -10 -69 -14
-114 -16 -118 -78 -166 -29 -22 -128 -100 -221 -173 -120 -94 -172 -130 -180
-123 -13 11 -64 109 -90 174 -13 33 -30 94 -52 192 -4 17 -8 337 -10 713 l-2
682 908 0 908 0 -240 -417z m360 -458 c-4 -519 -5 -543 -26 -618 -37 -133
-115 -283 -205 -392 l-25 -30 -43 24 c-24 14 -188 106 -364 206 -176 100 -347
197 -380 216 -34 19 -68 39 -77 44 -15 9 -14 26 10 198 l26 187 141 1 c77 1
174 3 215 4 41 2 109 3 150 4 l75 1 205 356 c242 420 228 395 265 463 l30 55
3 -90 c2 -49 1 -332 0 -629z m-818 -930 c212 -120 391 -223 398 -229 10 -10
-3 -21 -62 -55 -145 -83 -280 -121 -446 -126 -212 -7 -404 47 -571 162 -65 44
-159 123 -159 133 0 4 82 72 183 151 100 79 184 146 187 149 18 21 67 47 75
40 5 -4 183 -105 395 -225z"/>
</g>
</svg>
